<?xml version="1.0" encoding="UTF-8" standalone="no"?>
<svg width="141.33" xmlns="http://www.w3.org/2000/svg" height="72.016">
 <g id="svg_3">
  <g id="g3246">
   <path id="path3248" d="m0.2265 72.016v-72.016h140.67v72.016h-140.67z"/>
   <path id="path3250" d="m4.3961 67.873v-64.161h132.4v64.161h-132.4z" stroke="#fff" stroke-width="2.881" fill="#00b200"/>
  </g>
  <g id="svg_2" fill="#fff">
   <g id="g3252">
    <path id="path3254" d="m35.972 22.438c-3.3057 0-5.9862-2.8442-5.9862-6.3525 0-3.5088 2.6805-6.3531 5.9862-6.3531s5.9851 2.8443 5.9851 6.3531c0 3.5083-2.6795 6.3525-5.9851 6.3525z"/>
    <path id="path3256" d="m43.977 33.532l-7.4067-0.2807s0.52849-8.7036-0.52954-8.9844-6.0836-3.0884-6.8769-4.4922l-11.904 0.5615-4.4971 8.9844 3.7028 2.8076 5.0264-7.2998 2.6448 1.1231-6.6132 11.23s-1.058 9.2652-0.52849 10.669c0.52849 1.4038-7.936-2.8076-9.5235-0.2808l0.7943 5.896h14.284l-0.5295-8.7036 6.0836 4.2114 1.0591 12.354h5.2901l0.5287-16.003-7.1419-4.4922s-1.058-1.123-0.52954-1.9653c0.52954-0.8423 2.3811-5.0537 2.3811-5.0537l1.3228 4.4922 12.432 1.123 0.5295-5.896z"/>
   </g>
   <path id="path3258" d="m105.05 63.183v-54.306h27.389v54.306h-27.389z"/>
   <g id="svg_1" stroke-width="3" stroke="#fff">
    <path id="path3261" d="m47.187 40.945v-9.1924h43.278v9.1924h-43.278z"/>
    <path id="path3263" d="m87.767 25.65l11.825 10.948-11.825 10.949v-21.898z"/>
   </g>
  </g>
 </g>
</svg>
